<?xml version="1.0" encoding="utf-8"?>
<!-- Generator: Adobe Illustrator 15.1.0, SVG Export Plug-In . SVG Version: 6.00 Build 0)  -->
<!DOCTYPE svg PUBLIC "-//W3C//DTD SVG 1.1//EN" "http://www.w3.org/Graphics/SVG/1.1/DTD/svg11.dtd">
<svg version="1.1" id="_x32_" xmlns="http://www.w3.org/2000/svg" xmlns:xlink="http://www.w3.org/1999/xlink" x="0px" y="0px"
	 width="512px" height="512px" viewBox="0 0 512 512" style="enable-background:new 0 0 512 512;" xml:space="preserve">
<style type="text/css">
<![CDATA[
	.st0{fill:#4B4B4B;}
]]>
</style>
<g>
	<path class="st0" d="M207.063,167.141c-1.031-0.609-2.344-0.641-3.406-0.031c-1.031,0.594-1.688,1.719-1.688,2.938v85.938v85.953
		c0,1.234,0.656,2.344,1.688,2.938c1.063,0.625,2.375,0.594,3.406-0.031l144-85.953c1.031-0.594,1.641-1.703,1.641-2.906
		c0-1.172-0.609-2.297-1.641-2.891L207.063,167.141z"/>
	<path class="st0" d="M256,0C114.625,0,0,114.625,0,256s114.625,256,256,256s256-114.625,256-256S397.375,0,256,0z M256,448
		c-105.875,0-192-86.125-192-192S150.125,64,256,64s192,86.125,192,192S361.875,448,256,448z"/>
</g>
</svg>
